<?xml version="1.0" standalone="no"?>
<!DOCTYPE svg PUBLIC "-//W3C//DTD SVG 20010904//EN"
 "http://www.w3.org/TR/2001/REC-SVG-20010904/DTD/svg10.dtd">
<svg version="1.0" xmlns="http://www.w3.org/2000/svg"
 width="639.000000pt" height="639.000000pt" viewBox="0 0 639.000000 639.000000"
 preserveAspectRatio="xMidYMid meet">
<metadata>
Created by potrace 1.11, written by Peter Selinger 2001-2013
</metadata>
<g transform="translate(0.000000,639.000000) scale(0.100000,-0.100000)"
fill="#000000" stroke="none">
<path d="M2563 6355 l-50 -36 -2 -1042 c-2 -1029 -4 -1220 -15 -1317 -3 -28
-8 -74 -11 -102 -3 -29 -8 -70 -11 -90 -3 -21 -7 -50 -9 -65 -4 -29 -22 -143
-29 -178 -2 -11 -6 -38 -10 -60 -11 -64 -55 -243 -83 -335 -116 -393 -308
-772 -532 -1053 -264 -331 -660 -601 -1083 -737 -38 -12 -68 -23 -68 -24 0 -7
32 -96 35 -96 22 0 204 62 281 95 259 113 509 289 744 525 151 150 231 249
355 435 205 309 351 663 421 1020 4 22 8 43 9 48 2 4 3 17 4 29 0 12 4 18 8
15 3 -4 7 -141 7 -305 l1 -297 26 -38 c193 -278 884 -670 1909 -1082 118 -47
224 -90 235 -95 59 -26 549 -200 645 -229 117 -35 109 -35 120 -6 27 71 28 68
-62 98 -151 51 -481 168 -593 212 -60 23 -146 56 -190 73 -95 36 -471 191
-535 220 -25 11 -117 53 -205 92 -440 197 -831 410 -1030 559 -80 60 -181 157
-206 198 -21 33 -21 35 -21 1818 0 982 -1 1785 -2 1785 -1 0 -25 -16 -53 -35z"/>
<path d="M2958 5564 c-20 -13 -39 -27 -42 -32 -6 -9 -11 -2861 -5 -2865 25
-17 89 -57 91 -57 2 0 3 425 3 944 0 519 3 942 6 940 4 -2 10 -25 14 -51 10
-57 8 -51 30 -138 188 -764 736 -1550 1430 -2052 302 -218 547 -330 1010 -463
99 -28 186 -53 193 -55 12 -4 20 9 36 61 6 19 -3 23 -106 53 -496 143 -709
231 -961 397 -122 81 -317 229 -412 314 -86 76 -294 289 -361 370 -333 399
-564 830 -710 1320 -34 113 -88 332 -99 400 -3 19 -7 46 -10 60 -3 14 -7 39
-9 55 -2 17 -7 48 -11 70 -9 63 -14 101 -21 183 -3 43 -8 80 -10 84 -2 3 -7
114 -10 245 -4 131 -7 239 -8 239 0 1 -18 -9 -38 -22z"/>
<path d="M3971 3843 c-33 -38 -61 -72 -61 -78 0 -5 16 -21 36 -34 63 -43 204
-203 281 -318 163 -245 245 -516 246 -811 l0 -73 51 -46 c28 -25 74 -61 101
-80 l50 -33 5 62 c14 173 -8 400 -56 577 -83 307 -215 543 -429 764 -73 76
-142 137 -154 137 -5 0 -36 -30 -70 -67z"/>
<path d="M1344 2798 c-10 -46 -13 -380 -4 -431 4 -23 11 -66 14 -96 12 -102
82 -348 107 -375 8 -9 147 98 156 121 3 7 0 27 -6 46 -7 19 -13 43 -15 53 -2
11 -9 37 -14 59 -11 39 -13 52 -26 125 -3 19 -9 49 -12 65 -3 17 -8 120 -10
229 -3 150 -7 200 -17 202 -6 1 -43 9 -80 18 -88 21 -84 21 -93 -16z"/>
<path d="M2909 2217 c-4 -79 -6 -86 -64 -190 -91 -164 -229 -341 -405 -518
-184 -185 -279 -266 -499 -423 -189 -135 -324 -218 -569 -347 -53 -29 -99 -53
-101 -55 -1 -1 7 -22 19 -47 l22 -44 41 20 c101 48 394 218 522 303 191 127
206 138 319 228 276 222 490 450 649 691 26 39 53 79 60 89 11 16 13 -44 11
-370 -2 -343 -5 -1508 -4 -1541 0 -9 17 -13 49 -13 l50 0 -2 1127 -2 1127 -34
23 c-54 37 -59 32 -62 -60z"/>
<path d="M4154 1608 c-150 -197 -358 -363 -573 -457 -135 -59 -200 -78 -398
-116 -10 -2 -32 -4 -48 -4 l-30 -1 -3 -95 -3 -96 48 6 c139 16 165 20 248 41
208 53 380 129 550 245 84 56 117 83 209 169 73 68 238 268 233 283 -2 7 -169
87 -181 87 -3 0 -26 -28 -52 -62z"/>
<path d="M2330 1147 c-14 -12 -47 -40 -73 -61 -26 -22 -47 -42 -47 -46 0 -12
173 -88 282 -125 93 -31 302 -74 312 -64 4 4 10 149 7 175 -1 7 -16 14 -33 17
-111 18 -246 57 -335 97 -78 36 -81 36 -113 7z"/>
</g>
</svg>
